HIERARCHY
ROOT Hips
{
  OFFSET -242.61 96.3558 211.417
  CHANNELS 6 Xposition Yposition Zposition Zrotation Xrotation Yrotation
  JOINT ToSpine
  {
    OFFSET -0.0105055 1.38907 -7.13956
    CHANNELS 3 Zrotation Xrotation Yrotation
    JOINT Spine
    {
      OFFSET 0.0105055 10 1
      CHANNELS 3 Zrotation Xrotation Yrotation
      JOINT Spine1
      {
        OFFSET 0 12 1.60637
        CHANNELS 3 Zrotation Xrotation Yrotation
        JOINT Neck
        {
          OFFSET 0 27 2.26658
          CHANNELS 3 Zrotation Xrotation Yrotation
          JOINT Head
          {
            OFFSET 0 9 2.12705
            CHANNELS 3 Zrotation Xrotation Yrotation
            End Site
            {
              OFFSET 0 11 2
            }
          }
        }
        JOINT LeftShoulder
        {
          OFFSET 8 19.6109 2.86452
          CHANNELS 3 Zrotation Xrotation Yrotation
          JOINT LeftArm
          {
            OFFSET 12 1 0.681055
            CHANNELS 3 Zrotation Xrotation Yrotation
            JOINT LeftForeArm
            {
              OFFSET 19 0 -1.52608
              CHANNELS 3 Zrotation Xrotation Yrotation
              JOINT LeftHand
              {
                OFFSET 23 0 0
                CHANNELS 3 Zrotation Xrotation Yrotation
                End Site
                {
                  OFFSET 10 0 0
                }
              }
            }
          }
        }
        JOINT RightShoulder
        {
          OFFSET -8 19.6109 2.86452
          CHANNELS 3 Zrotation Xrotation Yrotation
          JOINT RightArm
          {
            OFFSET -12 1 0.681055
            CHANNELS 3 Zrotation Xrotation Yrotation
            JOINT RightForeArm
            {
              OFFSET -19 0 -1.52608
              CHANNELS 3 Zrotation Xrotation Yrotation
              JOINT RightHand
              {
                OFFSET -23 0 0
                CHANNELS 3 Zrotation Xrotation Yrotation
                End Site
                {
                  OFFSET -10 0 0
                }
              }
            }
          }
        }
      }
    }
  }
  JOINT LeftUpLeg
  {
    OFFSET 9 -7.17245 0
    CHANNELS 3 Zrotation Xrotation Yrotation
    JOINT LeftLeg
    {
      OFFSET 0 -44.1113 0
      CHANNELS 3 Zrotation Xrotation Yrotation
      JOINT LeftFoot
      {
        OFFSET 0 -36.1829 0
        CHANNELS 3 Zrotation Xrotation Yrotation
        JOINT LeftToeBase
        {
          OFFSET 0 -4.84184 13
          CHANNELS 3 Zrotation Xrotation Yrotation
          End Site
          {
            OFFSET 0 1 6
          }
        }
      }
    }
  }
  JOINT RightUpLeg
  {
    OFFSET -9 -7.17245 0
    CHANNELS 3 Zrotation Xrotation Yrotation
    JOINT RightLeg
    {
      OFFSET 0 -44.0551 0
      CHANNELS 3 Zrotation Xrotation Yrotation
      JOINT RightFoot
      {
        OFFSET 0 -36.1469 0
        CHANNELS 3 Zrotation Xrotation Yrotation
        JOINT RightToeBase
        {
          OFFSET 0 -4.92256 13
          CHANNELS 3 Zrotation Xrotation Yrotation
          End Site
          {
            OFFSET 0 1 6
          }
        }
      }
    }
  }
}
MOTION
Frames:	15
Frame Time:	0.0333333
-242.61 96.3558 211.417 -1.53059 0.0233532 107.097 0 0 0 1.37576 -0.664717 -0.963559 -1.69264 1.20718 -0.761455 18.2126 -0.450988 -36.1299 0.062434 -3.66826 -30.7773 -23.4487 2.56795 -5.12127 -54.7797 13.7725 -1.15598 -5.47778 -22.0866 -11.1142 -9.29095 0.35285 -4.34033 21.017 3.8718 10.5475 57.1952 7.1258 2.08516 2.23602 -3.87495 11.2264 2.08286 0.0408051 2.24442 0.881655 0.867963 6.40492 -0.21323 3.39052 1.16419 2.58795 -6.84601 0.154821 -0.0220462 -1.41343 0.499836 -1.56673 -3.28748 -5.45069 0.473363 5.23545 15.6353 -13.1222 -0.619406 -0.071242 3.18433 -10.9804 -8.96803 
-242.569 96.372 211.437 -1.3165 -0.00592312 107.237 0 0 0 1.60887 -0.56606 -0.996535 -1.96384 1.39415 -0.748864 18.5545 -0.547875 -36.2766 -0.189369 -3.80034 -30.8012 -23.2213 2.55568 -5.14273 -54.9965 13.5669 -0.92474 -5.51917 -22.1834 -11.5221 -8.70891 0.284833 -3.73928 21.1897 3.83807 10.3451 57.1766 7.36313 2.36209 2.20353 -3.40841 10.9631 1.66171 0.0348668 2.40389 1.05941 1.11645 6.55234 -0.257457 3.3491 0.923472 2.46526 -6.80357 0.146563 0.445839 -1.46967 -1.54443 -1.44645 -2.99527 -5.40787 0.435908 5.12642 15.7071 -12.9299 -0.448445 -0.0508163 3.26515 -11.369 -9.28478 
-242.511 96.4533 211.502 -1.25686 -0.271403 107.253 0 0 0 1.91084 -0.640768 -0.952552 -1.87653 1.57893 -0.719038 18.507 -0.755182 -36.1831 -0.0487256 -3.57139 -30.7481 -23.2848 2.54468 -5.08817 -54.8397 13.0884 -0.92247 -6.17873 -23.0542 -12.7573 -8.59761 0.0929793 -1.23688 21.2774 3.85072 10.3495 57.0364 7.56761 2.46746 2.25114 -3.61347 11.1526 1.61576 0.031484 2.23245 1.42322 1.30605 6.67875 -0.285774 2.91921 0.672607 2.23359 -6.35478 0.124008 0.796895 -1.10927 -3.15561 -1.05649 -3.12059 -4.91512 -0.774505 5.26103 13.4788 -7.08018 -3.9027 -0.241534 1.60278 -5.15151 -2.87386 
-242.407 96.3503 211.513 -1.21727 -0.0636034 107.599 0 0 0 1.62772 -0.622492 -1.04544 -1.80896 1.59025 -0.832047 18.5436 -0.518325 -36.2055 -0.0875362 -3.87555 -30.752 -23.7289 2.577 -5.07494 -54.1686 12.983 -0.699744 -4.26581 -17.8195 -11.5775 -11.2801 0.260698 -2.63935 21.2436 3.89496 10.5231 57.0559 7.09298 2.45941 2.47646 -4.71164 10.8213 3.05145 0.116506 4.372 1.28939 1.1725 6.69946 -0.320747 3.46605 0.486439 2.53469 -6.78577 0.150297 0.757244 -0.303427 -3.12002 -1.22325 -2.79579 -5.27032 0.135762 4.95139 14.043 -12.9763 -1.12713 -0.128187 3.09565 -10.9641 -5.82892 
-242.305 96.3348 211.559 -1.31437 -0.106852 107.925 0 0 0 1.51605 -0.7423 -1.09487 -1.64074 1.53724 -0.915679 18.2693 -0.495378 -36.0086 0.174266 -3.75012 -30.6661 -23.7059 2.60856 -5.18597 -54.3183 12.8592 -0.842094 -4.32212 -18.0537 -11.1936 -11.5079 0.261386 -2.59359 21.1343 3.92079 10.6673 57.1373 6.84273 2.19592 2.39367 -4.6901 11.0036 2.45494 0.0729359 3.40298 1.46791 1.02424 6.87481 -0.510067 3.58435 -0.180539 2.68989 -6.7058 0.157619 0.643496 0.115841 -2.71347 -1.2077 -2.73764 -5.35069 0.35881 4.73953 13.6693 -14.0321 -0.58368 -0.0718333 3.33773 -12.0837 -5.69667 
-242.21 96.3394 211.583 -1.33814 -0.0478248 108.04 0 0 0 1.5162 -0.772331 -1.05812 -1.62029 1.50496 -0.887505 18.0409 -0.251383 -36.0061 0.274899 -3.73502 -30.7262 -23.8227 2.59448 -5.10743 -54.5966 13.4447 -0.756121 -4.94486 -20.3478 -11.2376 -10.3133 0.307343 -3.4047 21.0997 3.92434 10.6966 57.1915 6.90653 2.02489 2.28181 -4.31956 11.2431 0.113726 0.00293757 2.95927 1.42689 1.0483 6.82345 -0.410606 3.63792 -0.141307 2.05337 -6.92007 0.124165 0.799119 -0.228139 -3.30933 -1.22314 -2.67844 -5.32724 0.30828 4.77837 13.6511 -13.8641 -0.578123 -0.0702894 3.37224 -12.2115 -6.10139 
-242.117 96.35 211.622 -1.6263 -0.0999435 108.453 0 0 0 1.45484 -1.24349 -1.11887 -1.62884 1.73552 -0.941391 18.3269 -0.453211 -36.0394 0.0787 -3.78234 -30.6628 -23.9197 2.64799 -5.2576 -54.4388 13.2489 -0.568766 -4.91122 -20.3406 -11.5531 -10.1437 0.279615 -3.14971 21.0543 3.90432 10.6466 57.2834 7.02262 2.10778 2.45711 -4.85889 11.0747 -0.167356 -0.00417996 2.86149 1.47139 0.924354 6.81656 -0.522176 3.24879 -0.428992 2.15855 -6.91943 0.130514 0.79339 -1.25606 -3.11525 -1.27159 -2.86104 -5.41197 0.353975 5.08012 14.2953 -12.0502 -1.68704 -0.178074 2.98492 -9.95682 -8.78724 
-241.986 96.3458 211.653 -1.71914 -0.0712918 108.541 0 0 0 1.33627 -1.27782 -1.05116 -1.33235 1.6656 -0.918292 18.0604 -0.750119 -35.9322 -0.0730614 -3.40806 -30.6015 -24.1967 2.63189 -5.1293 -54.3156 13.1107 -0.577397 -5.00258 -20.4213 -11.6843 -10.3136 0.251943 -2.79116 20.7032 3.80055 10.4394 57.5465 7.30142 2.19502 2.46024 -4.67526 11.0005 -1.19528 -0.0109683 1.05147 1.49272 0.985709 6.84414 -0.660956 3.01474 -0.719113 2.32288 -6.4567 0.130591 0.708701 -0.65388 -2.85323 -1.30694 -2.95468 -5.49397 0.400032 5.29936 14.1712 -12.3283 -1.83782 -0.198505 2.99865 -10.0679 -8.5796 
-241.787 96.3786 211.731 -1.67257 -0.224697 108.616 0 0 0 1.60515 -1.45896 -0.985481 -1.45839 1.95457 -0.840799 17.8246 -1.14582 -35.8276 -0.0157191 -2.60796 -30.5561 -24.329 2.61337 -5.03348 -54.0534 13.3495 -0.509479 -5.03476 -20.3823 -11.9517 -10.8132 0.284124 -3.00134 20.6174 3.8064 10.5018 57.6119 7.3386 2.17474 2.64692 -5.40109 10.956 -0.858786 -0.00667331 0.890414 1.8347 1.10823 7.09803 -0.742012 3.03685 -0.993512 2.18588 -6.75668 0.129052 0.782169 -0.0183156 -3.27117 -0.997812 -2.85507 -5.2887 0.228523 5.121 13.1871 -12.7078 -1.68685 -0.18785 3.01716 -10.5267 -6.35867 
-241.596 96.3545 211.811 -1.68331 -0.328121 109.054 0 0 0 1.80023 -1.82128 -1.05053 -1.7573 2.48788 -0.86349 18.2588 -1.67909 -35.9971 -0.51567 -2.76411 -30.5641 -24.0387 2.61482 -5.116 -54.1819 13.3848 -0.755495 -5.18532 -21.1835 -11.8628 -10.6482 0.279342 -2.99683 20.8703 3.85011 10.5393 57.5262 7.09365 2.18917 2.44529 -4.77469 11.0078 -0.41622 -0.00557487 1.53475 2.18683 1.0843 7.40314 -0.970632 3.16368 -1.74117 2.08872 -7.02339 0.128194 0.779973 0.467332 -3.33759 -0.811109 -2.60217 -5.20959 0.307279 5.06948 13.4005 -11.7429 -2.32941 -0.23958 2.83223 -9.21052 -8.52551 
-241.409 96.3528 211.995 -1.9145 -0.430171 109.398 0 0 0 1.44817 -2.02288 -1.00866 -1.4969 2.35271 -0.864859 18.5351 -1.35533 -36.1293 -0.323671 -3.25598 -30.6638 -23.7285 2.63782 -5.27683 -54.4537 13.0315 -0.85431 -5.16521 -21.2596 -11.5133 -10.7859 0.268389 -2.84241 21.0837 3.86301 10.4843 57.2107 6.93742 1.97597 2.15552 -3.37453 10.9581 2.03713 0.0551937 3.10364 2.56777 0.824098 7.77475 -1.27581 3.27868 -2.46379 1.53766 -7.09468 0.095328 0.780578 0.561512 -3.35444 -0.593831 -2.79341 -5.02001 0.271983 5.06942 12.7096 -12.3506 -2.05626 -0.222507 2.92788 -9.80901 -8.01942 
-241.221 96.3225 212.182 -1.96101 -0.480662 109.849 0 0 0 1.37259 -1.87266 -0.988467 -1.55134 2.19454 -0.8362 18.5432 -1.56925 -36.1396 -0.313225 -2.90646 -30.671 -23.8024 2.70741 -5.48661 -54.2655 12.8622 -0.882943 -5.11218 -21.1736 -11.3988 -10.3244 0.271149 -3.00068 21.1438 3.85488 10.4269 57.4128 6.92338 1.83076 2.22879 -3.91974 10.9472 1.50058 0.0354109 2.70349 2.78686 0.729768 7.8837 -1.28884 3.42138 -2.77225 1.90204 -7.44881 0.123825 0.856036 -0.459858 -3.51481 -0.342654 -2.70902 -4.82457 0.223944 4.84707 11.4763 -13.7723 -1.66868 -0.201538 3.11076 -10.9619 -6.39699 
-240.909 96.3267 212.286 -1.65206 -0.471116 110.04 0 0 0 1.39904 -1.8425 -0.869734 -1.34294 2.68122 -0.757189 18.1267 -2.14925 -36.0699 -0.363752 -2.54684 -30.7236 -24.2939 2.69826 -5.31947 -53.6996 13.2226 -1.08063 -5.27559 -21.502 -11.7042 -10.1761 0.233475 -2.62176 20.718 3.68575 10.015 57.7765 6.73066 2.1525 2.32557 -4.47954 10.9109 2.15895 0.0426707 2.26429 3.08987 1.26645 8.13032 -1.4085 3.29353 -3.56875 1.395 -7.35367 0.0896488 0.645867 -0.578141 -2.59796 -0.170942 -2.14953 -4.91973 0.311034 5.11841 12.0579 -11.9644 -3.12807 -0.327872 2.70592 -8.57613 -8.42509 
-240.613 96.321 212.477 -1.39564 -0.409608 110.365 0 0 0 1.39908 -1.27957 -0.872575 -1.44382 2.01203 -0.744363 18.2386 -0.601724 -36.047 -0.0152309 -3.57501 -30.678 -24.8808 2.73846 -5.28955 -52.9779 13.4508 -0.649317 -5.43434 -21.8829 -11.8508 -9.94677 0.228872 -2.62964 21.107 3.94886 10.781 57.4971 6.6936 1.41265 2.39993 -4.77636 10.9214 1.69611 0.0237862 1.60681 3.50674 1.72254 8.57488 -1.71348 3.19979 -4.19384 1.47529 -7.44764 0.0960238 0.843283 -0.371907 -3.47402 0.116571 -1.68706 -4.78906 0.256241 4.8315 10.8508 -13.8332 -2.26688 -0.275024 3.03073 -10.5833 -6.40892 
-240.317 96.2942 212.606 -1.16614 -0.197296 111.174 0 0 0 1.76302 -1.29228 -1.04993 -2.27542 2.76622 -0.757946 18.4707 -1.44571 -36.0776 -0.22297 -3.27413 -30.6551 -24.3626 2.63995 -5.11102 -52.9136 13.9435 -0.937373 -5.78329 -22.8699 -12.3661 -10.0789 0.246828 -2.7985 21.2219 3.85872 10.4039 58.057 8.46517 2.10497 1.54303 0.470796 10.8188 -0.973541 -0.00789047 0.928712 3.61773 2.27066 8.69235 -1.86286 2.80988 -5.26326 1.56394 -7.28351 0.0995451 0.756922 -0.858563 -3.02499 0.0738204 -1.2237 -5.08293 0.482908 4.95976 9.9682 -15.063 -2.2771 -0.301099 3.17243 -11.3442 -5.57594 
